:SAMPLES-PER-SECOND 30
:FULLY-SPECIFIED
:DEGREES
535
root  -14.8536 39.6782 -16.8964 -41.0191 -83.2203 38.0014
RightUpLeg  10.6401 -14.752 -4.91873
RightLeg  15.4454 -8.42818 2.26517
RightFoot  -19.9194 -0.198736 -0.868812
RightToes  0.00048216 0.542163 -0.142577
Spine  14.8659 2.72091 12.7337
Spine1  9.51972 9.63691 -18.6131
HEad  14.7834 55.8446 -12.3816
LeftShoulder1  7.90017 -11.5092 -45.8798
LeftArm  -10.404 29.4823 -28.6284
LeftForeArm  18.3762 -24.7795 -4.33516
LeftHand  -0.25398 0.0180481 5.50724
RightShoulder  5.15655 9.22558 34.5544
RightArm  -4.0381 -14.5269 31.2979
RightForeArm  -7.15237 33.6256 7.88155
RightHand  -1.14298 1.47283 -19.3799
LeftUpLeg  -11.1575 3.35007 -9.22005
LeftLeg  2.71022 22.2865 -6.82137
LeftFoot  6.43044 -2.18048 13.6577
LeftToes  1.06245e-005 4.65855e-005 -8.18504e-006
536
root  -13.7713 39.6932 -16.5321 -26.4916 -82.5752 23.7478
RightUpLeg  8.49362 -14.0065 -3.52267
RightLeg  15.6046 -11.3321 2.21361
RightFoot  -19.4415 -0.210623 -1.12681
RightToes  0.00048216 0.542163 -0.142577
Spine  15.4034 2.07785 15.507
Spine1  9.27557 9.09646 -18.2247
HEad  13.4373 55.5207 -14.4568
LeftShoulder1  8.14896 -11.8103 -46.4125
LeftArm  -10.0129 28.1558 -28.9371
LeftForeArm  20.4787 -26.3472 -4.56394
LeftHand  -0.25398 0.0180481 5.50724
RightShoulder  5.08305 9.20176 34.0584
RightArm  -5.04526 -13.7939 30.8036
RightForeArm  -6.55926 33.5649 7.8327
RightHand  -1.1098 1.36513 -19.1167
LeftUpLeg  -12.4051 3.15183 -8.37657
LeftLeg  1.58602 18.4995 -7.59609
LeftFoot  9.62319 -1.67934 8.84389
LeftToes  1.06245e-005 4.65855e-005 -8.18504e-006
537
root  -12.8 39.8116 -16.216 -17.9751 -81.1129 15.6017
RightUpLeg  6.4612 -14.4097 -3.24386
RightLeg  15.8134 -13.1054 2.36307
RightFoot  -18.2205 -0.236101 -1.88673
RightToes  0.00048216 0.542163 -0.142577
Spine  15.3047 1.76507 16.8047
Spine1  9.42655 8.50569 -17.0402
HEad  12.9548 54.8514 -15.605
LeftShoulder1  8.29401 -11.9992 -46.6716
LeftArm  -9.64724 27.2013 -28.9224
LeftForeArm  22.3788 -28.2398 -4.88337
LeftHand  -0.25398 0.0180481 5.50724
RightShoulder  5.11215 9.21428 34.2453
RightArm  -6.19375 -13.4887 30.0942
RightForeArm  -6.90841 33.0377 7.70644
RightHand  -1.1911 1.76512 -19.3815
LeftUpLeg  -13.1411 2.06161 -7.32279
LeftLeg  0.299493 13.7362 -8.32112
LeftFoot  11.8956 0.255189 -1.63812
LeftToes  1.06245e-005 4.65855e-005 -8.18504e-006
538
root  -11.9598 39.9925 -15.9439 -16.0618 -79.8546 13.8899
RightUpLeg  4.89909 -14.8512 -3.74574
RightLeg  15.8356 -13.7575 2.55145
RightFoot  -16.5365 -0.207756 -2.08105
RightToes  0.00048216 0.542163 -0.142577
Spine  15.1087 1.83906 16.8427
Spine1  9.60514 8.14874 -15.7454
HEad  13.4091 53.9695 -15.3272
LeftShoulder1  8.22224 -11.9446 -46.4231
LeftArm  -9.75459 26.5713 -28.6938
LeftForeArm  23.4383 -29.9673 -5.2234
LeftHand  -0.25398 0.0180481 5.50724
RightShoulder  5.19874 9.26956 34.7432
RightArm  -7.15605 -13.6835 29.9375
RightForeArm  -7.79473 31.8842 7.44211
RightHand  -1.33051 2.38584 -19.9414
LeftUpLeg  -13.2212 0.599477 -6.32477
LeftLeg  -0.757253 9.62397 -8.41577
LeftFoot  11.606 2.09419 -10.7166
LeftToes  1.06245e-005 4.65855e-005 -8.18504e-006
539
root  -11.2179 40.2335 -15.6864 -17.8265 -79.0318 15.6689
RightUpLeg  4.0751 -14.627 -4.76717
RightLeg  15.0889 -14.1293 2.81841
RightFoot  -14.4234 -0.134265 -1.33918
RightToes  0.00048216 0.542163 -0.142577
Spine  15.0973 2.07697 16.0901
Spine1  9.67552 8.0733 -14.7566
HEad  14.1627 53.1611 -14.1939
LeftShoulder1  8.03157 -11.7709 -45.8453
LeftArm  -10.5849 26.3947 -28.3102
LeftForeArm  23.5111 -31.4368 -5.56992
LeftHand  -0.25398 0.0180481 5.50724
RightShoulder  5.23398 9.29632 34.9305
RightArm  -7.38864 -14.4566 30.7637
RightForeArm  -8.74867 30.5042 7.12897
RightHand  -1.40025 2.64201 -20.3247
LeftUpLeg  -12.9804 -0.0567853 -5.8471
LeftLeg  -0.345263 7.44527 -7.55258
LeftFoot  8.76902 2.16978 -12.4085
LeftToes  1.06245e-005 4.65855e-005 -8.18504e-006
540
root  -10.5601 40.4819 -15.4112 -20.5037 -78.4694 18.3058
RightUpLeg  3.83464 -13.6946 -5.91378
RightLeg  13.548 -15.1071 3.21994
RightFoot  -12.3029 -0.0888239 -0.807024
RightToes  0.00048216 0.542163 -0.142577
Spine  14.9929 2.29405 15.1688
Spine1  9.67527 8.10907 -14.1678
HEad  14.2973 52.6631 -13.3085
LeftShoulder1  7.90409 -11.6863 -45.352
LeftArm  -11.7839 26.6572 -27.525
LeftForeArm  23.0632 -32.6811 -5.90149
LeftHand  -0.25398 0.0180481 5.50724
RightShoulder  5.22309 9.2782 34.9037
RightArm  -6.46934 -15.7132 32.0493
RightForeArm  -9.18846 29.6229 6.92595
RightHand  -1.28247 2.11747 -19.8835
LeftUpLeg  -12.6086 1.03172 -5.66348
LeftLeg  1.90336 7.50804 -6.00392
LeftFoot  5.0599 1.25334 -8.87293
LeftToes  1.06245e-005 4.65855e-005 -8.18504e-006
541
root  -9.98101 40.6488 -15.0989 -22.1542 -78.1422 19.9254
RightUpLeg  3.62269 -12.8173 -6.8221
RightLeg  12.1676 -15.9838 3.58811
RightFoot  -10.6791 -0.0673564 -0.836678
RightToes  0.00048216 0.542163 -0.142577
Spine  14.5821 2.41838 14.5815
Spine1  9.64014 8.09504 -13.8395
HEad  13.4554 52.4519 -13.2538
LeftShoulder1  7.88946 -11.7093 -45.1935
LeftArm  -12.8123 26.9476 -26.2109
LeftForeArm  22.6034 -33.3942 -6.10761
LeftHand  -0.25398 0.0180481 5.50724
RightShoulder  5.23939 9.25298 35.1088
RightArm  -4.56801 -17.1744 33.0708
RightForeArm  -8.53716 29.5535 6.87587
RightHand  -0.998379 0.917833 -18.3723
LeftUpLeg  -12.2225 4.47262 -5.27822
LeftLeg  5.41923 7.00997 -3.9045
LeftFoot  1.94255 0.687474 -6.05902
LeftToes  1.06245e-005 4.65855e-005 -8.18504e-006
542
root  -9.43805 40.7232 -14.7407 -22.5681 -78.1311 20.2503
RightUpLeg  3.20672 -12.587 -7.4949
RightLeg  11.502 -15.8507 3.78537
RightFoot  -9.49209 -0.0568503 -0.495685
RightToes  0.00048216 0.542163 -0.142577
Spine  14.0467 2.43368 14.365
Spine1  9.59971 7.98999 -13.5723
HEad  11.9756 52.3039 -13.891
LeftShoulder1  7.89181 -11.684 -45.2856
LeftArm  -13.6565 26.8349 -24.7872
LeftForeArm  22.261 -33.1507 -6.06639
LeftHand  -0.25398 0.0180481 5.50724
RightShoulder  5.27822 9.23026 35.4802
RightArm  -2.23242 -18.5418 33.795
RightForeArm  -7.08613 29.9041 6.89039
RightHand  -0.75734 -0.146579 -16.7571
LeftUpLeg  -11.7908 9.16458 -4.34486
LeftLeg  9.31531 3.66311 -1.68205
LeftFoot  -0.326983 0.543849 -5.63216
LeftToes  1.06245e-005 4.65855e-005 -8.18504e-006
